<svg xmlns="http://www.w3.org/2000/svg" xmlns:xlink="http://www.w3.org/1999/xlink" width="100" height="100" viewBox="0 0 100 100"><g><g transform="translate(50 50) scale(0.69 0.69) rotate(0) translate(-50 -50)" style="fill:#F38F19;"><svg fill="#F38F19" xmlns="http://www.w3.org/2000/svg" xmlns:xlink="http://www.w3.org/1999/xlink" version="1.1" x="0px" y="0px" viewBox="0 0 64 64" style="enable-background:new 0 0 64 64;" xml:space="preserve"><g><path d="M63,32C63,14.907,49.093,1,32,1c-5.359,0-10.58,1.388-15.209,4H13V1H7v12.687C3.08,19.027,1,25.347,1,32   c0,17.094,13.907,31,31,31c3.809,0,7.527-0.685,11.052-2.031C45.064,62.248,47.444,63,50,63c3.118,0,6.134-1.121,8.492-3.156   l-1.307-1.514C55.19,60.052,52.639,61,50,61c-6.065,0-11-4.935-11-11s4.935-11,11-11s11,4.935,11,11   c0,2.535-0.838,4.918-2.425,6.891l1.559,1.254C61.982,55.846,63,52.954,63,50c0-2.558-0.753-4.938-2.033-6.951   C62.312,39.523,63,35.809,63,32z M60.975,31h-8.561l7.354-7.354C60.474,25.987,60.888,28.452,60.975,31z M55.936,15.65   L44.767,26.819l1.414,1.414l10.85-10.85c0.776,1.324,1.449,2.714,2.011,4.161L49.586,31h-6.172l1.293-1.293l-1.414-1.414L40.586,31   h-6.172l18.773-18.773C54.185,13.297,55.106,14.439,55.936,15.65z M46.42,9.994l1.93-1.93c1.211,0.83,2.353,1.75,3.423,2.749   L33,29.586v-6.172l12.153-12.153l-1.414-1.414L33,20.586v-6.172l9.456-9.456c1.447,0.561,2.837,1.234,4.161,2.011L45.006,8.58   L46.42,9.994z M33,11.586V3.025c2.548,0.087,5.013,0.501,7.354,1.207L33,11.586z M25,19h2v6h-2V19z M23,17v8h-2V15h2V17z M19,13v12   h-2V11h2V13z M15,7v2v16h-2V7H15z M9,3h2v2v20H9V3z M11,27h2h2h2h2h2h2h2h4V17h-4v-4h-4V9h-4V7.192   c4.231-2.564,9.039-3.987,14-4.157V31H3.04C3.203,26.132,4.555,21.48,7,17.333V27H11z M3.025,33H31v27.975   C15.804,60.456,3.544,48.196,3.025,33z M50,37c-7.168,0-13,5.832-13,13c0,3.761,1.615,7.143,4.176,9.519   C38.541,60.398,35.8,60.883,33,60.977V33h27.977c-0.094,2.799-0.583,5.538-1.461,8.173C57.14,38.613,53.759,37,50,37z"></path><rect x="11.515" y="43" transform="matrix(0.7071 -0.7071 0.7071 0.7071 -25.2548 27.0294)" width="16.971" height="2"></rect><path d="M24,45c-1.654,0-3,1.346-3,3s1.346,3,3,3s3-1.346,3-3S25.654,45,24,45z M24,49c-0.551,0-1-0.448-1-1s0.449-1,1-1   s1,0.448,1,1S24.551,49,24,49z"></path><path d="M16,43c1.654,0,3-1.346,3-3s-1.346-3-3-3s-3,1.346-3,3S14.346,43,16,43z M16,39c0.551,0,1,0.448,1,1s-0.449,1-1,1   s-1-0.448-1-1S15.449,39,16,39z"></path><path d="M50,45c1.103,0,2,0.897,2,2h2c0-1.859-1.28-3.411-3-3.858V41h-2v2.142c-1.72,0.447-3,1.999-3,3.858c0,2.206,1.794,4,4,4   c1.103,0,2,0.897,2,2s-0.897,2-2,2s-2-0.897-2-2h-2c0,1.859,1.28,3.411,3,3.858V59h2v-2.142c1.72-0.447,3-1.999,3-3.858   c0-2.206-1.794-4-4-4c-1.103,0-2-0.897-2-2S48.897,45,50,45z"></path><rect x="57" y="49" width="2" height="2"></rect><rect x="41" y="49" width="2" height="2"></rect></g></svg></g></g></svg>